<svg width="24" height="24" viewBox="0 0 24 24" fill="none" xmlns="http://www.w3.org/2000/svg">
<path fill-rule="evenodd" clip-rule="evenodd" d="M7 5C7 3.89543 7.89543 3 9 3H11C12.1046 3 13 3.89543 13 5V19C13 20.1046 12.1046 21 11 21H9C7.89543 21 7 20.1046 7 19V5ZM11 5H9V19H11V5Z" style="fill:#ffffff"/>
<path fill-rule="evenodd" clip-rule="evenodd" d="M2 5.00006C2 3.89549 2.89543 3.00006 4 3.00006H6C7.10457 3.00006 8 3.89549 8 5.00006V19.0001C8 20.1046 7.10457 21.0001 6 21.0001H4C2.89543 21.0001 2 20.1046 2 19.0001V5.00006ZM6 5.00006H4V19.0001H6V5.00006Z" style="fill:#ffffff"/>
<path fill-rule="evenodd" clip-rule="evenodd" d="M12 14H3V12H12V14Z" style="fill:#ffffff"/>
<path fill-rule="evenodd" clip-rule="evenodd" d="M12 17H3V15H12V17Z" style="fill:#ffffff"/>
<path fill-rule="evenodd" clip-rule="evenodd" d="M15.6366 3.04789C16.7036 2.76201 17.8002 3.39517 18.0861 4.46211L21.7096 17.9851C21.9955 19.052 21.3623 20.1487 20.2954 20.4346L18.3635 20.9522C17.2966 21.2381 16.1999 20.6049 15.914 19.538L12.2906 6.01502C12.0047 4.94809 12.6379 3.85141 13.7048 3.56553L15.6366 3.04789ZM16.1543 4.97974L14.2224 5.49738L17.8459 19.0203L19.7777 18.5027L16.1543 4.97974Z" style="fill:#ffffff"/>
<path fill-rule="evenodd" clip-rule="evenodd" d="M19.4495 13.414L15.5858 14.4493L15.0681 12.5175L18.9318 11.4822L19.4495 13.414Z" style="fill:#ffffff"/>
<path fill-rule="evenodd" clip-rule="evenodd" d="M20.2261 16.312L16.3624 17.3473L15.8447 15.4154L19.7084 14.3801L20.2261 16.312Z" style="fill:#ffffff"/>
</svg>
